<svg xmlns="http://www.w3.org/2000/svg" viewBox="17 17 262 354" role="img" aria-label="GRANTED">
<title>GRANTED</title>
  <path fill="#FFFFFF" fill-rule="evenodd" d="M150.64 30.7L159.76 30.82L178.97 33.92L196.41 39.63L208.8 45.63L221.25 53.78L226.46 58.05L232.52 63.92L241.82 74.54L246.81 81.66L250.14 87.42L230.05 88.05L147.89 88.5L138.13 88.88L129.8 90.13L118.59 93.88L111.98 97.25L106.06 101.13L97.92 108.11L94.59 112.56L93.33 113.56L89.73 118.94L84.94 129.5L82.25 140.19L81.88 147.22L82.25 158.47L83.53 164.36L84.16 165.39L84.09 166.72L88 176.25L92.88 183.66L100.2 191.83L108.09 198.47L113.52 201.58L124.69 206.44L131.13 208.38L144.72 209.5L176.06 209.86L182.19 210.77L185.19 212.13L189.86 216.08L192.1 218.8L194.38 223.17L195.5 226.97L195.78 241.13L195.43 255.7L194.17 262.55L190.96 263.93L187.22 264.75L182.39 266.72L176.55 268.36L174.19 268.34L173.25 268.92L170.73 268.98L169 269.69L163.84 270.5L153.34 270.88L136.5 270.5L120.72 267.69L111.72 264.78L97.47 259.25L86.83 253.83L77.61 247.77L69.09 240.63L60.73 232.02L53.88 223.59L46 211.03L40 199.22L36.44 189.42L33.48 178.8L31.47 166.47L30.63 155.22L30.81 147.72L31.44 145.47L31.86 138.75L32.83 133.14L35.69 122.16L39.63 111L44.13 100.69L50.88 88.91L57.11 79.95L64.15 71.59L72.7 62.98L80.72 56L90.44 49.19L101.88 42.78L113.19 37.75L125.38 34L135.22 32.13L147.75 30.73Z"></path>
  <path fill="#E4761F" fill-rule="evenodd" d="M184.27 122.8L240.58 123.19L256.92 123.88L265.39 124.89L265.98 126.23L268.81 142.03L269.81 151.73L269.81 158.53L268.81 168.06L268.08 170.44L267.92 173.92L267.23 175.27L267.17 177.8L263.33 191.78L259.25 202.03L253.77 212.7L248.66 220.63L237.41 234.84L231.67 240.48L228.38 242.88L227.5 218.75L225.66 210.56L222.22 202.91L218.28 196.94L214.55 192.6L209.05 187.68L203.81 184.25L197.58 181.02L188.34 178.16L175.7 177.25L145.17 176.8L134.41 176.13L130.28 174.63L127.37 172.79L122.33 168.27L119.02 163.95L116.56 158.78L115.16 153.41L115.06 144.48L116.11 140.91L118.22 136.31L120.4 132.91L122.98 129.98L128.13 126L136.13 122.84L160.2 122.79Z"></path>
  <path fill="#FFFFFF" fill-rule="evenodd" d="M386.5 74L408 73.5L417 76.5L421 76.5L436 83.5L447 91.5L455.5 101L461.5 110L465.5 120L463 122.5L446 122.5L443.5 121L437.5 110L431 103.5L425 99.5L414 94.5L410 94.5L404 92.5L393 92.5L384 95.5L383 94.5L377 97.5L375 97.5L365 103.5L354.5 114L346.5 127L343.5 136L343.5 141L342.5 142L342.5 155L346.5 169L354.5 182L362 189.5L369 194.5L386 201.5L395 201.5L396 202.5L410 201.5L421 197.5L434.5 188L442.5 178L445.5 172L448.5 162L447 160.5L394 160.5L392.5 159L392.5 143L394 141.5L469 141.5L470.5 144L470.5 155L469.5 156L468.5 167L460.5 186L449.5 200L442 206.5L425 216.5L422 216.5L415 219.5L410 219.5L409 220.5L393 221.5L392 220.5L380 219.5L373 216.5L370 216.5L358 210.5L351 205.5L339.5 194L333.5 186L333.5 184L327.5 174L324.5 165L324.5 160L323.5 159L323.5 140L324.5 139L324.5 133L330.5 116L332.5 114L333.5 110L342.5 98L354 87.5L367 79.5L370 79.5L375 76.5L386 74.5ZM514.5 77L579 76.5L580 77.5L584 77.5L585 78.5L592 79.5L605 85.5L618.5 98L623.5 107L623.5 110L626.5 119L625.5 135L623.5 141L616.5 153L606 162.5L598 166.5L596 166.5L594.5 168L594.5 170L627.5 212L629.5 215L629.5 218L609 218.5L572 172.5L533 172.5L532.5 217L531 218.5L515 218.5L513.5 217L514 77.5ZM724.5 77L740 76.5L742.5 79L744.5 85L750.5 96L750.5 98L759.5 115L759.5 117L762.5 121L762.5 123L771.5 140L771.5 142L773.5 144L774.5 148L777.5 152L777.5 154L783.5 165L783.5 167L785.5 169L786.5 173L795.5 190L795.5 192L797.5 194L798.5 198L800.5 200L801.5 204L806.5 212L807.5 217L806 218.5L788 218.5L786.5 217L777.5 199L777.5 197L775.5 195L774.5 191L772.5 189L770.5 183L764.5 173L764.5 171L755.5 154L755.5 152L753.5 150L753.5 148L750.5 144L748.5 138L746.5 136L744.5 129L741.5 125L741.5 123L735.5 112L735.5 110L733 106.5L730.5 107L727.5 113L727.5 115L724.5 119L721.5 128L715.5 138L712.5 147L709.5 151L709.5 153L700.5 170L699.5 174L697.5 176L697.5 178L691.5 189L691.5 191L689.5 193L688.5 197L686.5 199L685.5 203L683.5 205L683.5 207L678.5 217L677 218.5L659 218.5L657.5 217L661.5 206L663.5 204L664.5 200L667.5 196L667.5 194L669.5 192L670.5 188L672.5 186L673.5 182L688.5 153L688.5 151L694.5 141L694.5 139L700.5 128L700.5 126L706.5 115L706.5 113L709.5 109L709.5 107L714.5 98L714.5 96L724 77.5ZM846.5 77L862 76.5L866.5 81L877.5 97L947 182.5L949.5 181L949.5 78L951 76.5L967 76.5L968.5 78L968.5 217L967 218.5L951 218.5L910.5 170L871.5 121L866 115.5L864.5 116L864.5 216L863 218.5L846 218.5L844.5 217L844.5 79L846 77.5ZM1015.5 77L1135 76.5L1136.5 78L1136.5 94L1134 96.5L1083.5 97L1083.5 217L1082 218.5L1066 218.5L1064.5 217L1064.5 97L1017 96.5L1014.5 95L1014.5 79L1015.5 78ZM1188.5 77L1288 76.5L1289.5 78L1289 95.5L1222 95.5L1221 96.5L1209 95.5L1206.5 98L1206.5 137L1208 138.5L1228 138.5L1229 137.5L1239 137.5L1240 138.5L1246 138.5L1247 137.5L1250 138.5L1267 137.5L1269 138.5L1270 137.5L1276 137.5L1278.5 139L1278 156.5L1208 156.5L1206.5 158L1206.5 199L1288 199.5L1289.5 201L1289.5 217L1288 218.5L1189 218.5L1186.5 216L1186.5 80L1188 77.5ZM1339.5 77L1401 76.5L1402 77.5L1406 77.5L1411 79.5L1415 79.5L1431 86.5L1439 91.5L1448.5 100L1456.5 111L1460.5 119L1460.5 121L1463.5 127L1463.5 130L1465.5 135L1465.5 140L1466.5 141L1466.5 154L1465.5 155L1465.5 160L1464.5 161L1463.5 168L1460.5 174L1460.5 176L1449.5 193L1437 204.5L1427 210.5L1425 210.5L1420 213.5L1411 216.5L1406 216.5L1400 218.5L1338.5 218L1337.5 216L1337.5 80L1339 77.5ZM533.5 96L558 95.5L559 96.5L580 96.5L592 100.5L601.5 109L605.5 116L606.5 127L605.5 128L605.5 134L602.5 140L594 148.5L584 153.5L580 153.5L575 155.5L534 155.5L532.5 154L533 96.5ZM1381.5 96L1396 95.5L1397 96.5L1403 96.5L1418 101.5L1426 106.5L1439.5 121L1442.5 126L1445.5 135L1446.5 154L1442.5 168L1435.5 179L1422 191.5L1406 198.5L1402 198.5L1401 199.5L1358 199.5L1356.5 198L1356.5 98L1358 96.5L1381 96.5Z"></path>
  <path fill="#FFFFFF" fill-rule="evenodd" d="M730.5 192L737 192.5L742.5 197L744.5 201L744.5 208L742.5 212L738 216.5L735 217.5L729 217.5L721.5 213L719.5 208L719.5 201L721.5 197L725 193.5L730 192.5Z"></path>
  <path fill="#FFFFFF" fill-rule="evenodd" transform="translate(390.16 43.22) scale(0.82)" d="M402.5 280L404 279.5L406 280.5L409.5 284L409.5 286L404.5 296L402.5 298L401.5 302L398.5 306L396.5 313L394.5 315L392.5 322L390.5 324L390.5 327L389 328.5L386 328.5L383.5 326L383.5 323L392.5 304L398.5 295L398.5 294L397 293.5L383.5 307L370 323.5L365 323.5L362.5 321L365.5 315L365.5 312L368.5 306L368.5 303L371.5 296L371.5 295L370 294.5L352.5 319L346.5 330L344 332.5L339.5 328L347.5 315L350.5 312L351.5 309L372 282.5L374 282.5L376 284.5L378.5 285L378.5 291L373.5 306L373.5 308L375 308.5L386.5 295L402 280.5ZM475.5 281L481 280.5L487 282.5L492.5 289L492.5 295L488 300.5L474 308.5L466.5 311L470 315.5L481 323.5L482.5 326L479 329.5L476 328.5L470 323.5L469 321.5L458 313.5L449 329.5L443.5 326L445.5 323L445.5 321L463.5 291L463.5 290L462 289.5L456 291.5L454.5 290L454.5 288L460 284.5L463 284.5L471 281.5L475 281.5ZM431.5 282L434 281.5L440 283.5L443.5 287L443.5 289L445.5 292L444.5 304L442.5 309L440.5 311L440.5 313L437.5 317L428 326.5L426 326.5L420 329.5L417 329.5L411 326.5L407.5 321L407.5 312L412.5 302L412.5 300L423 287.5L431 282.5ZM525.5 282L539 281.5L540.5 283L538.5 287L528 287.5L527 288.5L517 289.5L510.5 300L513 301.5L518 299.5L528 299.5L529.5 301L529.5 303L527 305.5L519 305.5L513 307.5L508 307.5L505.5 310L500.5 320L502 322.5L508 320.5L514 320.5L515 319.5L524 318.5L526.5 321L525.5 324L521 325.5L516 325.5L515 326.5L509 326.5L508 327.5L504 327.5L498 329.5L495 329.5L491.5 326L491.5 324L493.5 322L493.5 320L495.5 318L497.5 312L497.5 310L495.5 307L502.5 303L505.5 296L507.5 294L507 291.5L505 292.5L503 291.5L501.5 289L504 286.5L509 284.5L525 282.5ZM433.5 288L438 287.5L440.5 290L440.5 298L434.5 311L432.5 312L430.5 316L424 322.5L420 324.5L416 324.5L413.5 322L413.5 314L415.5 312L414.5 311L420.5 300L433 288.5ZM471.5 288L484 287.5L486.5 290L486.5 292L479 299.5L473 301.5L469 304.5L464 305.5L463.5 303L471.5 289Z"></path>
  <path fill="#FFFFFF" fill-rule="evenodd" transform="translate(390.16 43.22) scale(0.82)" d="M908.5 280L910 279.5L914.5 283L907.5 294L907.5 296L904.5 299L902.5 304L895.5 314L895.5 316L893.5 318L891.5 324L893 324.5L894 323.5L897 323.5L902 321.5L908 321.5L909 320.5L917 320.5L919.5 323L917.5 326L904 327.5L899 329.5L895 329.5L888 332.5L884 332.5L879.5 327L882.5 325L888.5 313L892.5 308L892.5 306L895.5 303L895.5 301L908 280.5ZM967.5 280L977 279.5L979.5 282L977 286.5L971 285.5L970 286.5L954 288.5L951.5 291L951.5 293L946.5 300L948 301.5L950 301.5L955 299.5L962 299.5L964 298.5L967.5 302L965 304.5L962 305.5L955 305.5L954 306.5L942 308.5L938.5 313L934.5 322L935 323.5L940 323.5L941 322.5L945 322.5L946 321.5L960 318.5L962.5 322L961.5 324L960 325.5L951 326.5L943 329.5L939 329.5L933 331.5L928 330.5L925.5 327L925.5 324L927.5 322L932.5 312L930.5 309L930.5 306L933 304.5L936 304.5L944.5 292L943 290.5L940 291.5L936.5 287L941 284.5L945 284.5L958 280.5L959 281.5L961 280.5L967 280.5ZM1005.5 280L1015 279.5L1017 280.5L1019.5 284L1017.5 287L1013 291.5L1010.5 291L1010.5 289L1012.5 286L1011 284.5L1001 287.5L991 293.5L986.5 298L985.5 301L1010 302.5L1014.5 306L1014.5 309L1015.5 310L1013.5 315L1006 322.5L993 329.5L990 329.5L986 331.5L979 331.5L975 329.5L972.5 326L972.5 324L977 320.5L980 325.5L985 325.5L991 323.5L1003 316.5L1007.5 312L1008.5 309L1007 307.5L987 307.5L981 305.5L978.5 303L978.5 297L981 293.5L993 284.5L1005 280.5ZM1051.5 280L1061 279.5L1064.5 283L1062.5 287L1059 290.5L1055.5 290L1057.5 287L1057 285.5L1052 285.5L1049 287.5L1047 287.5L1037 293.5L1033.5 297L1032.5 301L1052 301.5L1058 303.5L1061.5 308L1061.5 314L1059.5 317L1047 326.5L1032 331.5L1027 331.5L1023 329.5L1020.5 326L1020.5 324L1024 320.5L1026 325.5L1032 325.5L1038 323.5L1048 317.5L1054.5 311L1055.5 309L1054 307.5L1032 307.5L1027 305.5L1024.5 301L1026.5 295L1032 289.5L1045 281.5L1051 280.5Z"></path>
  <path fill="#FFFFFF" fill-rule="evenodd" transform="translate(390.16 43.22) scale(0.82)" d="M1123.5 279L1126 278.5L1129 279.5L1131.5 282L1132.5 286L1129.5 291L1126 294.5L1123.5 293L1123.5 290L1125.5 288L1125 284.5L1123 284.5L1116 288.5L1104.5 300L1096.5 316L1096.5 324L1099 326.5L1105 326.5L1111 322.5L1116.5 317L1119.5 312L1118 310.5L1117 311.5L1111 311.5L1110.5 308L1112 305.5L1123 304.5L1131 301.5L1134.5 305L1132 308.5L1128 309.5L1126.5 311L1119.5 326L1117.5 328L1117.5 330L1114.5 334L1114.5 337L1109 341.5L1106.5 339L1106.5 337L1110 329.5L1104 331.5L1100 331.5L1093.5 328L1090.5 323L1090.5 312L1093.5 307L1093.5 305L1099.5 296L1109 286.5L1115 282.5L1121 279.5L1123 279.5ZM1257.5 279L1261.5 282L1261.5 284L1256.5 292L1256.5 294L1254.5 296L1250.5 305L1248.5 307L1241.5 322L1239.5 324L1239.5 326L1238 327.5L1235 327.5L1234 328.5L1231 328.5L1229.5 327L1229 294.5L1227.5 295L1218.5 310L1218.5 312L1216.5 314L1209.5 329L1208 330.5L1203.5 325L1207.5 320L1212.5 309L1220.5 296L1220.5 294L1230 281.5L1232 281.5L1236.5 284L1236.5 287L1235.5 288L1235.5 300L1234.5 301L1234.5 317L1236 317.5L1238.5 315L1241.5 309L1241.5 307L1247.5 298L1257 279.5ZM1165.5 280L1174 279.5L1177 280.5L1181 282.5L1185.5 289L1185.5 294L1182 299.5L1173 305.5L1171 305.5L1167 308.5L1165 308.5L1158.5 312L1162 316.5L1174.5 326L1173.5 329L1170 330.5L1150 314.5L1147.5 315L1144.5 320L1144.5 322L1139 330.5L1133.5 326L1154.5 291L1154 289.5L1151 289.5L1147 291.5L1144.5 289L1144.5 287L1148 284.5L1153 283.5L1156 281.5L1165 280.5ZM1206.5 280L1210 281.5L1211.5 284L1208.5 291L1203.5 298L1203.5 300L1197.5 309L1197.5 311L1194.5 315L1194.5 317L1192.5 319L1188.5 329L1186 329.5L1182.5 325L1184.5 323L1185.5 319L1199.5 293L1199.5 291L1206 280.5ZM1283.5 280L1290 279.5L1293 280.5L1297 282.5L1300.5 287L1301.5 290L1301.5 299L1298.5 305L1298.5 307L1295.5 311L1281 323.5L1268 329.5L1260 330.5L1257 329.5L1254.5 327L1256.5 325L1265.5 306L1265.5 304L1267.5 302L1267.5 300L1272.5 292L1272 290.5L1269 290.5L1268 291.5L1265.5 288L1269 284.5L1271 284.5L1276 281.5L1283 280.5ZM1164.5 286L1167 285.5L1170 286.5L1172 285.5L1173 286.5L1176 285.5L1179.5 288L1180.5 290L1179.5 292L1174 297.5L1166 302.5L1154 306.5L1153.5 305L1158.5 297L1162.5 289L1162.5 287L1164 286.5ZM1281.5 286L1292 285.5L1296.5 291L1296.5 296L1290.5 307L1282 315.5L1276 319.5L1271 322.5L1268 323.5L1265.5 323L1265.5 320L1268.5 315L1268.5 313L1279.5 291L1278.5 288L1281 286.5ZM1305.5 321L1310 320.5L1312 321.5L1312.5 327L1309 330.5L1304 330.5L1302.5 324L1305 321.5Z"></path>
  <path fill="#E4761F" fill-rule="evenodd" transform="translate(390.16 43.22) scale(0.82)" d="M590.5 279L595 278.5L597 279.5L600.5 283L599.5 288L597.5 291L593 294.5L590.5 292L593.5 288L593 284.5L591 284.5L584 288.5L574.5 298L570.5 304L567.5 309L564.5 318L564.5 323L568 326.5L573 326.5L578 323.5L584.5 317L587.5 312L587.5 311L586 310.5L580 312.5L577.5 308L580 305.5L585 305.5L595 302.5L600.5 303L601.5 307L595.5 310L594.5 314L582.5 334L582.5 337L577 340.5L574.5 337L577.5 331L577 329.5L575 329.5L572 331.5L566 331.5L562 329.5L558.5 324L557.5 317L560.5 307L566.5 297L573.5 289L579 284.5L588 279.5L590 279.5ZM636.5 279L640 278.5L649 281.5L653.5 288L653.5 293L648 300.5L641 305.5L639 305.5L633 309.5L625.5 312L629 316.5L642 325.5L642.5 327L638 330.5L636 329.5L624 320.5L623.5 319L618 314.5L616 314.5L614.5 316L611.5 323L606 330.5L600.5 326L605.5 319L605.5 317L610.5 311L622.5 290L622.5 289L621 288.5L614 291.5L611.5 288L614 285.5L618 284.5L623 281.5L636 279.5ZM689.5 279L693 278.5L694 279.5L697 279.5L699.5 283L694.5 298L694.5 301L691.5 307L691.5 311L693 311.5L693.5 313L689.5 316L685.5 326L685.5 329L682 332.5L678.5 330L679.5 322L682 316.5L665 316.5L654 330.5L651 329.5L649.5 327L655.5 319L655.5 318L653 317.5L651.5 315L653 313.5L660 311.5L673.5 295L689 279.5ZM831.5 279L836 279.5L839.5 282L839.5 286L835 290.5L831.5 290L832.5 288L832 285.5L828 285.5L814 291.5L810 294.5L805.5 300L808 302.5L825 301.5L832 303.5L836.5 308L836.5 314L832.5 319L827 323.5L811 330.5L803 331.5L798 329.5L795.5 327L795.5 323L799 319.5L799.5 323L802 325.5L806 325.5L815 322.5L826 315.5L829.5 312L830.5 309L829 307.5L806 307.5L803 306.5L801 305.5L799.5 303L799.5 298L808 288.5L811 287.5L814 284.5L820 281.5L823 281.5L827 279.5L831 279.5ZM751.5 280L753 279.5L755.5 282L754.5 287L746.5 300L745.5 304L743.5 306L733.5 326L730 328.5L726 328.5L725 329.5L723.5 328L723 293.5L718.5 299L709.5 314L709.5 316L703.5 328L700 330.5L696.5 327L697.5 324L699.5 322L700.5 318L709.5 304L712.5 297L723 281.5L728 281.5L730.5 283L730.5 293L728.5 300L728.5 316L730 317.5L732.5 315L739.5 300L744.5 293L744.5 291L751 280.5ZM793.5 280L804 279.5L806.5 284L805 285.5L797 285.5L796 286.5L787 287.5L785.5 289L764 330.5L761 329.5L758.5 326L762.5 318L762.5 316L764.5 314L768.5 305L770.5 303L770.5 301L777.5 290L775 288.5L768 290.5L761 290.5L759.5 289L759.5 287L762 284.5L770 283.5L771 282.5L784 281.5L785 280.5L793 280.5ZM636.5 285L641 284.5L646 286.5L647.5 288L647.5 291L635 301.5L633 301.5L627 305.5L622 306.5L621.5 304L629.5 291L630.5 287L632 285.5L636 285.5ZM688.5 289L691.5 289L683.5 310L679 310.5L678 309.5L677 310.5L671 310.5L670.5 309L677.5 300L688 289.5ZM843.5 321L847 320.5L849.5 323L848.5 329L846 330.5L842 330.5L840.5 329L839.5 326L840.5 323L843 321.5ZM658.5 344L783 343.5L784 344.5L800 344.5L801 345.5L819 345.5L820 346.5L835 346.5L838.5 350L835.5 354L834 355.5L830 355.5L829 354.5L818 354.5L817 353.5L793 353.5L792 352.5L736 352.5L735 351.5L732 352.5L712 352.5L711 351.5L705 351.5L704 352.5L624 353.5L623 354.5L605 354.5L604 355.5L564 356.5L563 357.5L560 357.5L555.5 353L558 349.5L566 349.5L567 348.5L573 348.5L574 347.5L588 347.5L589 346.5L624 345.5L625 344.5L658 344.5Z"></path>
  <text x="1476" y="96.4" font-family="Arial, Helvetica, sans-serif" font-size="32" fill="#FFFFFF">TM</text>
</svg>